<svg xmlns="http://www.w3.org/2000/svg" viewBox="0 0 326 513" width="326" height="513">
	<style>
		tspan { white-space:pre }
		.shp0 { fill: #3b4958 } 
		.shp1 { fill: #17202a } 
		.shp2 { fill: #ff7045 } 
		.shp3 { fill: #f64c1c } 
		.shp4 { fill: #00c8c8 } 
		.shp5 { fill: #00a0aa } 
	</style>
	<g id="surface1">
		<path id="Layer" fill-rule="evenodd" class="shp0" d="M296.62 509.33C290.7 513.4 282.73 512.76 277.54 507.8L162.8 398.34L48.06 507.8C45.15 510.58 41.38 512 37.57 512C34.59 512 31.59 511.12 28.98 509.33C23.06 505.26 20.8 497.6 23.56 490.97L148.78 190.6C151.14 184.94 156.67 181.25 162.8 181.25C168.93 181.25 174.46 184.94 176.82 190.6L302.04 490.97C304.8 497.6 302.54 505.26 296.62 509.33ZM162.8 235.91L151.87 262.13L173.73 262.13L162.8 235.91ZM140.8 377.36L114.35 352.13L79.43 435.9L140.8 377.36ZM162.8 356.36L198.73 322.09L186.39 292.51L139.2 292.51L126.87 322.09L162.8 356.36ZM246.17 435.9L211.25 352.13L184.8 377.36L246.17 435.9Z" />
		<path id="Layer" fill-rule="evenodd" class="shp1" d="M162.8 235.91L162.8 181.25C168.93 181.25 174.46 184.94 176.82 190.6L302.04 490.97C304.8 497.6 302.54 505.26 296.62 509.33C290.7 513.4 282.73 512.76 277.54 507.8L162.8 398.35L162.8 356.36L198.72 322.09L186.39 292.51L162.8 292.51L162.8 262.13L173.73 262.13L162.8 235.91ZM211.25 352.13L184.8 377.36L246.17 435.9L211.25 352.13Z" />
		<path id="Layer" class="shp2" d="M162.8 211.61C150.28 211.61 137.75 206.84 128.22 197.3C109.15 178.24 109.15 147.21 128.22 128.14C147.29 109.07 178.31 109.07 197.38 128.14C216.45 147.21 216.45 178.24 197.38 197.3C187.84 206.84 175.32 211.61 162.8 211.61Z" />
		<path id="Layer" class="shp3" d="M197.38 128.14C187.85 118.61 175.32 113.84 162.8 113.84L162.8 211.61C175.32 211.61 187.85 206.84 197.38 197.3C216.45 178.24 216.45 147.21 197.38 128.14Z" />
		<path id="Layer" class="shp4" d="M226.04 241.16C222.16 241.16 218.27 239.68 215.3 236.71C209.38 230.78 209.38 221.16 215.3 215.23C229.33 201.2 237.05 182.55 237.05 162.72C237.05 142.89 229.33 124.24 215.3 110.21C186.35 81.26 139.24 81.26 110.29 110.21C96.27 124.24 88.54 142.89 88.54 162.72C88.54 182.55 96.27 201.2 110.29 215.23C116.22 221.16 116.22 230.78 110.29 236.71C104.36 242.64 94.74 242.64 88.81 236.71C69.05 216.95 58.17 190.67 58.17 162.72C58.17 134.77 69.05 108.5 88.81 88.74C129.61 47.94 195.99 47.94 236.78 88.74C256.55 108.5 267.43 134.77 267.43 162.72C267.43 190.67 256.54 216.95 236.78 236.71C233.82 239.67 229.93 241.16 226.04 241.16Z" />
		<path id="Layer" class="shp5" d="M215.3 110.21C229.33 124.24 237.05 142.89 237.05 162.72C237.05 182.55 229.33 201.2 215.3 215.23C209.38 221.16 209.38 230.78 215.3 236.71C218.27 239.68 222.16 241.16 226.05 241.16C229.93 241.16 233.82 239.67 236.79 236.71C256.55 216.95 267.43 190.67 267.43 162.72C267.43 134.77 256.55 108.5 236.79 88.74C216.39 68.34 189.59 58.14 162.8 58.14L162.8 88.5C181.81 88.5 200.83 95.74 215.3 110.21Z" />
		<path id="Layer" class="shp4" d="M267.18 282.29C263.29 282.29 259.4 280.8 256.44 277.84C250.51 271.91 250.51 262.29 256.44 256.36C281.45 231.35 295.22 198.09 295.22 162.72C295.22 127.35 281.45 94.1 256.44 69.09C204.8 17.45 120.79 17.45 69.16 69.09C44.15 94.1 30.38 127.35 30.38 162.72C30.38 198.09 44.15 231.35 69.16 256.36C75.09 262.29 75.09 271.91 69.16 277.84C63.23 283.77 53.61 283.77 47.68 277.84C16.93 247.09 0 206.21 0 162.72C0 119.24 16.93 78.36 47.68 47.61C111.16 -15.87 214.44 -15.87 277.91 47.61C308.66 78.36 325.6 119.24 325.6 162.72C325.6 206.21 308.66 247.09 277.91 277.84C274.95 280.8 271.06 282.29 267.18 282.29Z" />
		<path id="Layer" class="shp5" d="M162.8 0L162.8 30.36C196.71 30.36 230.62 43.27 256.44 69.09C281.45 94.1 295.22 127.35 295.22 162.72C295.22 198.09 281.45 231.35 256.44 256.36C250.51 262.29 250.51 271.91 256.44 277.84C259.4 280.8 263.29 282.29 267.18 282.29C271.06 282.29 274.95 280.8 277.91 277.84C308.66 247.09 325.6 206.21 325.6 162.72C325.6 119.24 308.66 78.36 277.91 47.61C246.18 15.87 204.49 0 162.8 0Z" />
	</g>
</svg>