<?xml version="1.0" standalone="no"?>
<!DOCTYPE svg PUBLIC "-//W3C//DTD SVG 20010904//EN"
 "http://www.w3.org/TR/2001/REC-SVG-20010904/DTD/svg10.dtd">
<svg version="1.0" xmlns="http://www.w3.org/2000/svg"
 width="811.000000pt" height="1277.000000pt" viewBox="0 0 811.000000 1277.000000"
 preserveAspectRatio="xMidYMid meet">
<metadata>
Created by potrace 1.16, written by Peter Selinger 2001-2019
</metadata>
<g transform="translate(0.000000,1277.000000) scale(0.100000,-0.100000)"
fill="#000000" stroke="none">
<path d="M4070 12390 c0 -355 1 -380 18 -380 251 -4 610 -54 855 -121 155 -42
211 -62 462 -162 57 -23 281 -140 365 -190 156 -95 338 -226 465 -337 67 -58
318 -312 362 -365 383 -467 615 -959 727 -1540 15 -82 17 -98 36 -271 30 -285
12 -678 -46 -962 -41 -204 -113 -448 -177 -596 -9 -21 -17 -41 -17 -44 0 -16
-154 -326 -181 -363 -10 -15 -19 -30 -19 -33 0 -4 -8 -19 -19 -34 -10 -15 -45
-67 -77 -117 -32 -49 -61 -92 -64 -95 -3 -3 -28 -36 -55 -74 -27 -38 -56 -77
-64 -86 -9 -8 -29 -31 -45 -50 -15 -19 -74 -84 -130 -143 -110 -118 -151 -184
-162 -262 -24 -172 36 -310 171 -396 72 -45 105 -54 205 -54 153 0 208 34 411
251 99 106 291 354 374 482 6 9 13 21 18 26 144 199 361 646 452 931 39 122
93 310 104 366 5 24 22 105 37 179 l28 135 4 570 c3 404 0 593 -8 650 -16 110
-46 260 -76 380 -14 55 -28 110 -30 121 -7 39 -91 287 -137 405 -67 175 -239
517 -304 606 -13 17 -23 33 -23 36 0 9 -124 192 -132 195 -4 2 -8 8 -8 13 0
11 -104 150 -143 193 -12 13 -35 41 -52 62 -117 150 -418 446 -570 560 -27 21
-52 41 -55 44 -3 3 -21 17 -40 30 -19 13 -37 27 -40 30 -6 6 -23 18 -162 113
-53 37 -99 67 -102 67 -3 0 -36 20 -73 44 -143 92 -481 253 -678 323 -437 154
-906 243 -1281 243 l-124 0 0 -380z"/>
<path d="M4070 10937 l0 -387 73 0 c63 0 119 -6 247 -25 249 -38 570 -174 767
-326 160 -123 218 -177 313 -289 30 -36 57 -67 60 -70 31 -30 163 -240 202
-320 74 -154 129 -322 161 -495 19 -101 22 -154 21 -335 -1 -192 -4 -229 -28
-348 -71 -347 -242 -676 -479 -921 -87 -89 -127 -169 -134 -265 -13 -167 62
-302 208 -377 52 -26 79 -33 144 -37 146 -8 233 34 361 174 44 48 84 91 90 98
29 31 154 201 200 271 177 273 316 632 375 966 106 612 -11 1260 -321 1779
-47 78 -126 197 -162 245 -285 372 -652 660 -1063 832 -304 128 -589 194 -902
210 l-133 6 0 -386z"/>
<path d="M3950 9924 c-14 -2 -56 -9 -95 -15 -426 -68 -807 -393 -945 -807 -49
-149 -63 -233 -63 -397 0 -117 5 -173 22 -255 73 -348 298 -654 598 -817 37
-20 69 -37 71 -39 2 -1 -663 -1599 -1476 -3550 -814 -1952 -1485 -3566 -1492
-3588 -8 -24 -11 -72 -8 -130 4 -74 9 -101 31 -143 35 -67 81 -119 136 -155
45 -28 46 -28 210 -28 155 0 168 2 204 23 20 12 686 641 1478 1397 793 756
1445 1375 1449 1375 4 0 656 -619 1449 -1375 792 -756 1458 -1385 1478 -1397
36 -21 49 -23 204 -23 164 0 165 0 210 28 55 36 101 88 136 155 22 42 27 69
31 143 3 58 0 106 -8 130 -7 22 -678 1636 -1492 3588 -813 1952 -1478 3549
-1476 3551 2 1 34 18 71 38 300 163 525 469 598 817 28 135 31 363 5 485 -53
248 -162 456 -328 624 -229 233 -511 355 -838 365 -74 3 -146 3 -160 0z m253
-3388 c70 -168 127 -307 127 -310 0 -3 -117 -6 -260 -6 -143 0 -260 3 -260 6
0 14 254 614 260 614 4 0 64 -137 133 -304z m605 -1450 l152 -364 -112 -109
c-62 -60 -263 -252 -445 -427 l-333 -317 -332 317 c-183 175 -384 367 -446
427 l-112 109 152 364 152 364 586 0 587 0 151 -364z m-1580 -1480 l282 -270
-22 -22 c-151 -147 -1473 -1403 -1475 -1401 -2 2 653 1580 831 2001 l16 38 42
-38 c24 -21 170 -160 326 -308z m2481 -680 c231 -556 419 -1011 418 -1013 -2
-2 -1319 1249 -1475 1401 l-23 22 322 307 c178 169 326 304 330 300 4 -5 196
-462 428 -1017z"/>
</g>
</svg>
